<svg xmlns="http://www.w3.org/2000/svg" viewBox="0 0 573.96 91.78"><title>left circuit fill</title><g id="Layer_2" data-name="Layer 2"><g id="Layer_1-2" data-name="Layer 1"><polygon points="0 60.03 46.72 59.6 93.45 59.26 186.39 58.81 243.99 0.98 244.97 0 245.95 0.98 289.92 44.81 332.79 87.76 366.09 54.56 366.48 54.17 367.04 54.17 428.63 54.31 489.84 54.61 506.68 37.93 507.25 37.37 507.8 37.93 538.64 69.23 538.75 54.31 538.76 53.97 539.09 53.98 573.96 54.31 539.42 54.64 539.55 70.33 539.56 71.45 538.76 70.66 507.24 39.6 490.85 56.16 490.59 56.42 490.21 56.42 428.63 56.72 367.59 56.86 333.79 90.77 332.79 91.78 331.78 90.77 287.83 46.91 244.97 3.91 187.76 60.9 187.4 61.26 186.89 61.26 93.45 60.81 46.72 60.46 0 60.03" style="fill:#76ecff"/></g></g></svg>