<svg xmlns="http://www.w3.org/2000/svg" viewBox="0 0 573.96 91.78"><title>right circuit fill</title><g id="Layer_2" data-name="Layer 2"><g id="Layer_1-2" data-name="Layer 1"><polygon points="573.96 60.03 527.23 59.6 480.51 59.26 387.57 58.81 329.96 0.98 328.99 0 328.01 0.98 284.03 44.81 241.17 87.76 207.87 54.56 207.47 54.17 206.92 54.17 145.33 54.31 84.11 54.61 67.28 37.93 66.71 37.37 66.16 37.93 35.32 69.23 35.2 54.31 35.2 53.97 34.87 53.98 0 54.31 34.53 54.64 34.41 70.33 34.4 71.45 35.2 70.66 66.71 39.6 83.1 56.16 83.36 56.42 83.75 56.42 145.33 56.72 206.37 56.86 240.17 90.77 241.17 91.78 242.18 90.77 286.13 46.91 328.99 3.91 386.2 60.9 386.56 61.26 387.06 61.26 480.51 60.81 527.23 60.46 573.96 60.03" style="fill:#76ecff"/></g></g></svg>